# xmcd
#
# Track frame offsets: 
#        150
#        19227
#        45177
#        61959
#        79405
#        97837
#        121630
#        148495
#        171971
#        189045
#        213195
#
# Disc length: 3035 seconds
#
# Revision: 0
# Processed by: cddbd v1.5.2PL0 Copyright (c) Steve Scherf et al.
# Submitted via: ExactAudioCopy v1.0b1
#
DISCID=890bd90b
DTITLE=Kareyce Fotso - Kwegne
DYEAR=2010
DGENRE=Folk
TTITLE0=So'a
TTITLE1=Peu Be 
TTITLE2=Mayole
TTITLE3=Lomdieu
TTITLE4=Kodjieu
TTITLE5=Kuichoueu
TTITLE6=Goun
TTITLE7=Poa'lag
TTITLE8=Pac Ler Francaise 
TTITLE9=Sea Chant
TTITLE10=Mindzouck Missi
EXTD=
EXTT0=
EXTT1=
EXTT2=
EXTT3=
EXTT4=
EXTT5=
EXTT6=
EXTT7=
EXTT8=
EXTT9=
EXTT10=
PLAYORDER=
